# xmcd
#
# Track frame offsets:
#   150
#   18459
#   36147
#   48650
#   63232
#   77356
#   93155
#   110708
#   123725
#   140711
#   155078
#   166259
#   180869
#   196533
#   213357
#   226401
#   247653
#   265018
#   290455
#   312896
#
# Disc length: 4370 seconds
#
# Revision: 0
# Processed by: cddbd v1.5.1PL2 Copyright (c) Steve Scherf et al.
# Submitted via: GXTranscoder 2.0.1939
#
DISCID=08111014
DTITLE=televisa acapulco - televisa
DYEAR=1900
DGENRE=cumbias
TTITLE0=los cumbieros del sur - sufriendo por ti
TTITLE1=domingo valdivia - lejania
TTITLE2=los desertores - mi linda cruz
TTITLE3=organizacion acapulco - el veneno de tu amor
TTITLE4=los desertores - chamaca preciosa
TTITLE5=banda r3 - amor imposible
TTITLE6=los desertores - la diabla
TTITLE7=luz roja de marbel - mi cafetal
TTITLE8=sexto poder - taquito de ojo
TTITLE9=cafe 4.40  -  mi burrito
TTITLE10=los donnys - la fiesta
TTITLE11=los desertores - la boda negra
TTITLE12=domingo valdivia - se murio el perrito
TTITLE13=mar azul - mujer divina
TTITLE14=luz roja de marbel - la espinita
TTITLE15=raza costeña - la culebritica
TTITLE16=luz roja - el engaño
TTITLE17=los karkis - bacalao con papa
TTITLE18=mar azul - la puya de mi novia
TTITLE19=mar azul - mariela la parrandera
EXTD=
EXTT0=
EXTT1=
EXTT2=
EXTT3=
EXTT4=
EXTT5=
EXTT6=
EXTT7=
EXTT8=
EXTT9=
EXTT10=
EXTT11=
EXTT12=
EXTT13=
EXTT14=
EXTT15=
EXTT16=
EXTT17=
EXTT18=
EXTT19=
PLAYORDER=
